<?xml version="1.0" encoding="UTF-8"?>
<svg viewBox="0 0 343.75 187.5" xmlns="http://www.w3.org/2000/svg">
 <g transform="translate(-3.4229e-7 -1.8901e-6)">
  <path d="m214.97 39.042c-21.958 0.44344-41.062 12.496-60.309 21.542-4.9173 0.86267-12.318 4.8787-16.066 0.42714 5.0455-6.7724 14.318-8.8177 21.469-12.969 6.9683 0.40181 10.812-7.5241 1.7493-7.5139-13.854-3.7413-29.013-0.81778-40.508 7.7629-8.1319 5.2728-16.343 11.419-25.237 15.348-6.1906 1.2875-4.7262-7.0256-1.0824-9.1825 1.8962-3.5008 9.8061-5.4596 7.6364-9.3914-7.3588-1.0568-15.057 3.224-22.152 5.6021-11.253 5.4681-21.008 15.232-22.562 28.125 2.2886 6.6325-4.2857 3.9514-6.0312 9.4062-1.9502 9.796 9.4948 14.632 17.397 15.883 25.335 0.32025 50.187-7.0964 75.597-6.9492 22.363-1.526 44.805-3.5591 67.237-1.6071 19.79 0.39285 39.041 5.1904 58.668 7.0516 10.617-0.2482 23.729 3.4835 32.163-4.8155 7.5447-9.8595 0.31962-23.67-8.6116-29.996-13.295-12.377-32.469-16.52-50.091-13.851-12.874 2.3106-25.35 7.9079-38.391 8.4411-3.2586-4.6802 7.0314-7.4552 10.475-9.451 9.7383-5.0476 20.846-5.7545 31.587-6.424 4.8406-4.9616-5.8972-5.404-9.3753-5.9924-7.7883-1.2995-15.664-2.0288-23.562-1.4451z" fill="#dca75a"/>
  <path d="m166.59 117.42c-5.6386 2.2025-2.2812 13.762-10.164 11.346-6.6907-0.96988-13.665-1.9496-20.274 0.02943-2.2653-3.757-6.3023-9.0285-11.031-4.9375-1.7159 5.113-5.8027 6.045-10.874 5.03-13.59-0.36752-27.456 0.44235-40.813 1.4075-0.45712-6.6051-13.944-6.9686-11.844 0.3125-5.0196 0.57601-10.816 5.3296-6.9375 10.5 9.3578 12.471 26.971 10.358 40.681 9.1688 23.358-3.0846 46.966-2.2012 70.444-3.575 20.977 0.00674 42.054-1.7052 62.872 1.8975 15.342 1.3621 32.619 5.8313 46.51-3.3602 4.5505-2.0902 11.378-8.8838 5.4928-13.162-8.4877-4.082-18.528-2.5861-27.719-3.0938-8.464 0.68712-17.017 0.68444-25.375 2.1875-3.1944-1.8374 3.2737-7.0389-0.75-9.8438-4.4303-4.6777-7.8687 2.4817-6.9688 6.5938-5.7053 6.0648-15.524 2.4541-22.812 1.2188-7.9467-2.8158-16.497-2.4338-24.344 0.4375-5.4688-0.59289 4.825-5.7052 0.84375-9.3438-1.3561-2.235-4.3519-3.9123-6.9375-2.8125z" fill="#dca75a"/>
  <path d="m150.12 112.98c-10.26 1.5376-20.689 3.1144-30.688 5.8125-4.7423 3.2601-10.318 10.861-15.716 5.2398-6.6288-4.1828-15.039-1.0723-22.439-2.2442-10.925-0.78762-21.865-0.31102-32.564 2.0982-0.17786 4.6942-1.7297 6.116-7.9449 6.8732-6.4417 0.02749-12.528 5.9605-9.2738 12.439 5.0041 2.4485 10.237-4.7402 15.237-6.2725 4.5475-3.4606 11.18-2.9077 15.388-6.4775 0.43385-5.1895 9.5986-4.4031 10.531 0.40625 7.3624 2.0435 15.555-0.622 23.281-0.27083 7.995 0.08022 14.983-0.80658 22.875-0.13376 6.1344 1.9307 5.8813-8.7046 12.094-5.5954 2.9603 4.1644 6.7395 6.5391 12 4.375 6.4546-1.0991 13.685 3.1846 19.438-0.0625 2.052-3.2115 2.1712-13.067 8.2199-9.7277 4.1554 1.4886 2.1466 6.437-0.50113 8.4465-0.51605 6.2538 7.994 1.344 11.344 1.0625 12.747-1.9694 25.4 7.3468 37.969 2.2188 3.4052-2.1933-0.13011-10.08 5.25-9.8125 4.4761 2.0023 1.4906 6.321 0.875 9.5938 6.2934 2.6336 13.922-0.39299 20.737 0.03747 15.12-0.95228 31.103-1.5477 44.807 5.9502 4.0841 4.4778 9.1311 4.649 11.18-1.8533 1.3066-3.8404 8.234-6.8161 6.2093-10.649-4.9775-3.0292-9.0044 0.91442-11.065 4.7495-2.4537 1.4752-11.99-0.10703-8.326-4.0278 0.57622-5.7614-7.858-2.3666-11.448-3.332-4.0056 1.5179-8.1383 4.9898-12.763 1.976-6.1191-5.6555-15.383-4.551-23.068-6.8227-14.345-2.2739-28.965-2.3809-43.419-3.5908-3.5426 1.8704 2.1043 8.6128-5.25 7.5938-2.3757-0.52589-11.877 1.0083-9.4375-3.375 3.5994-6.2082-6.4876-4.1592-9.9998-4.6136-7.8451-0.25252-15.686-0.24071-23.531-0.01135zm92.938 9.7188c4.8119 3.7983-5.9151 2.2322-1.4062-0.1875 0.47588-0.11268 0.93812 0.10968 1.4062 0.1875z" fill="#f3e98d"/>
  <path d="m237.53 46.074c-11.85 1.333-24.285 4.9134-33.25 12.938-1.4032 6.5349 7.1782 4.7402 10.849 3.3392 15.248-3.3514 30.239-9.787 46.151-7.6489 7.9586 2.3468 8.6132-5.07 1.0315-6.3778-7.89-2.6624-16.535-3.1769-24.781-2.25z" fill="#e3c693"/>
  <path d="m203.37 36.761c-17.329 1.6793-34.54 6.1276-50.318 13.336-5.0216 3.2714-12.635 4.473-15.401 10.132 1.1376 6.7566 10.201 3.3808 14.792 2.34 17.171-7.0564 33.091-17.42 51.444-21.43 4.055-0.56006 3.6292-5.0701-0.51729-4.3788z" fill="#e3c693"/>
  <path d="m133.19 37.824c-15.45 1.3301-32.446 6.1473-41.873 19.296-4.0226 5.1378 3.6692 10.627 8.0106 6.3277 13.194-6.3153 23.802-17.184 37.738-21.936 2.6932-2.9691-1.4465-4.3153-3.875-3.6875z" fill="#e3c693"/>
  <path d="m189.56 112.95c-4.3356-0.75531-11.551 6.0273-5.2188 8.3438 4.6692 0.55257 11.259 2.0835 14.594-1.9688-0.40699-4.0977-5.7358-6.3244-9.375-6.375zm-76.406 6.2812c-3.3439 1.3602-12.52-0.33259-11.064 4.9314 4.1492 4.9872 13.751 2.4229 14.876-3.8064-1.1996-0.94978-2.2545-1.5337-3.8125-1.125zm153.34 1.6875c-5.6334 1.9178 0.78262 6.6605 4.2812 5.0312 6.2517-2.5091-0.98274-5.673-4.2812-5.0312zm-25.25 0.03125c-5.4532 1.7134 1.3844 8.5137 3.9375 4.0938 0.67616-2.584-1.4537-4.5069-3.9375-4.0938z" fill="#e4b45f"/>
  <path d="m306.91 100.21c0.42749 4.4256 1.1262 9.5891-5.1437 11.314-8.6277 4.0411-17.328-0.75068-25.241-3.4715-3.0417 6.7064-15.503 5.5007-23.099 4.8198-9.1926-0.91535-17.989-5.9879-22.657-14.091-6.3183-0.29363-11.999 5.234-18.62 5.7255-7.9091 2.3311-15.555-0.93077-22.817-3.4755-7.1842 2.585-13.826 7.4316-21.967 6.9522-9.6153 1.4958-18.958-2.6756-28.314-2.6397-7.0898 2.3448-14.894 2.265-21.986 1.1733-6.938 5.6551-15.175 12.416-25.003 10.064-4.2887-0.75672-8.0246-4.3509-12.372-1.2744-11.644 5.0659-28.891-0.93054-29.515-15.056-4.1122-3.8998-8.5412 3.7188-11.016 6.7327-4.5498 9.3091 7.3608 20.33 16.641 16.799 17.601-3.1051 35.571 1.6628 53.123-2.4405 18.59-3.3116 37.146-7.8604 56.156-7.0983 17.677-0.85008 35.298 0.51833 52.908 1.675 20.31-0.30291 39.793 6.8453 60.115 6.7417 12.49 2.1958 25.961-0.8834 33.583-11.737 2.7483-6.3823-2.1855-12.355-4.7767-10.712z" fill="#f1b0c2"/>
  <path d="m54.302 99.344c-1.9352 9.0726 13.764 14.377 17.094 5.5937-4.1549-3.4901-10.594-3.7162-15.312-6.6875l-1.7812 1.0938z" fill="#f3e97d"/>
  <path d="m50.395 94.688c-5.0169 11.704 6.9177 24.556 18.969 23.406 9.0515 0.51229 20.449-3.8517 20.948-14.212-3.1629-3.7503-9.933-0.45943-14.51-1.0691-5.384 1.93-11.033 8.6113-16.942 3.802-5.7846-1.8086-1.3665-13.399-8.4638-11.927z" fill="#f5f5f5"/>
  <path d="m138.9 95.938c-5.3298-0.84556-9.713 1.601-13.875 4.5625-5.3026 2.3574-10.63-2.0633-15.719-1.3438-2.8114 5.6542 6.7825 6.53 10.125 8.5 10.732 2.2521 22.817-0.46714 30.469-8.5937 0.93733-5.6208-8.0148-2.4628-11-3.125z" fill="#f5f5f5"/>
  <path d="m124.02 96.938c-4.1245-0.71848-14.645 3.3228-6.441 5.7462 3.7375 0.97917 13.777-0.29808 11.085-5.3252-1.2592-1.2864-3.0978-0.29431-4.6437-0.42101z" fill="#f3e97d"/>
  <path d="m187.24 93.532c-7.8608 0.6558 0.16046 7.5839 3.5625 8.9375 11.751 6.872 26.913 4.8376 37.5-3.1875 2.0134-5.0898-8.2637-5.8001-11.094-3.0625-7.4725 4.1698-16.635 1.6407-23.25-2.75-2.2393-0.19543-4.4789-0.01216-6.7188 0.0625z" fill="#f5f5f5"/>
  <path d="m198.86 93.407c-7.0295 3.0139 2.6168 6.0923 6.3952 5.8611 3.6561 0.32166 14.169 1.7563 12.132-3.7688-5.3446-2.4213-12.625-1.4017-18.528-2.0923z" fill="#f3e97d"/>
  <path d="m302.33 96.907c-4.8073 1.8507 0.15324 9.6693-6.6865 8.9824-5.814 0.62087-9.7232-5.8785-15.844-3.873-7.0683-1.3408-6.1206 6.0633-0.38308 7.4629 7.821 5.0385 19.981 7.3689 27.32 0.52146 3.2247-3.8648-1.513-15.959-3.1546-12.38l-1.2517-0.71385z" fill="#f5f5f5"/>
  <path d="m299.86 98.438c-2.863 3.9984-13.723 0.54905-10.756 7.1281 4.8794 4.3058 14.907 1.7565 13.341-6.2026-1.0352-1.1885-0.81639-1.8342-2.5849-0.92548z" fill="#f3e97d"/>
  <path d="m179.8 101.88c-11.051 4.1954-23.152 2.9752-34.5 0.75-6.8566 3.538 4.1798 6.3341 7.7653 6.1894 11.537 1.5971 24.915 1.6922 34.422-5.9394 1.536-5.5012-5.5011-2.337-7.6875-1z" fill="#ad3833"/>
  <path d="m165.05 94.438c-4.2367 0.84741-8.0353 1.0149-12.156 1.5-4.8311 1.9281-9.6968 10.159-1.0625 9.5 9.2901 0.84168 20.19 1.4223 28.238-2.469 3.7092-0.24582 8.6333-4.903 3.7975-7.6289-4.7541-4.3175-2.9195 2.4693-4.9728 3.2542 3.3904-7.8032-10.274-3.5012-13.844-4.1562zm4.25 5.5c-3.6315 2.542 0.67376-1.2279 0 0zm-10.938 1.125c-0.66795 0.30723-0.03251-0.27379 0 0z" fill="#cc453e"/>
  <path d="m230.77 97.094c-1.3705 6.6539 6.741 11.343 11.807 14.267 10.281 5.0285 23.439 5.2324 33.381-0.32969 0.53343-7.0835-6.654-1.0818-10.619-1.2614-11.278 1.8504-25.497-4.0966-31.381-13.051-1.2971-0.79993-2.106-0.64701-3.1875 0.375z" fill="#ad3833"/>
  <path d="m236.65 96.844c-5.406 3.5698 3.6816 8.234 6.5126 9.6657 5.6038 5.2753 5.8093-5.6154 7.0067-0.41236-2.9598 4.3806 6.0747 4.29 8.9808 4.6842 3.5707 0.37863 6.4492-0.73149 9.9375-1.0625 5.5054 0.07849 7.7073-5.1755 2.4688-7.5-3.6408-3.7032-7.3893 4.2249-8.375-0.375-5.4886-3.6266-13.293-2.2118-18.75-4.0938-2.8692 1.0515-4.1374-1.9352-7.7812-0.90625zm9.75 5.625c-2.099 0.23594 0.06783-0.84649 0 0zm8 2.5937c-0.26927 0.56771-4.5793 0.33343 0 0zm7.3438 1.6562c-0.6138 0.27228 0.31686-0.76376 0 0z" fill="#cc453e"/>
  <path d="m112.24 105.03c-6.5329 6.191-15.807 8.1034-24.5 6.25-7.2919 2.6678 2.0576 7.8853 6.1562 7.1875 8.3926 0.01246 18.852-3.3707 22.5-11.375-0.33225-1.9702-2.3933-2.9064-4.1562-2.0625z" fill="#ad3833"/>
  <path d="m100.21 100.47c-3.5702 0.45991-12.165 0.75795-9.5 6.4062 6.3722 3.8334-2.5316-1.8259-3.1562 3.5625 1.2809 5.7258 8.7646 1.7052 12.732 1.6592 4.4643-1.3304 11.883-3.4213 11.676-8.4325-3.1464-3.1901-7.4871-3.2209-11.752-3.1954z" fill="#cc453e"/>
  <path d="m214.33282,35.5628c-1.36087-.05195-2.54274-.02999-3.59375.03125-1.14325.0666-3.41498.12686-5.03125.15625-.47843.00871-1.28225.14323-1.9375.1875-.90062.05936-1.63756.13117-2.46875.21875-.79012.08266-1.52316.09114-2.1875.1875-2.00965.29149-4.57407.62413-5.71875.71875-3.30527.27322-5.3952.60457-7.65625,1.28125-1.15761.34644-3.30963.88396-4.75,1.1875s-2.92458.68832-3.3125.84375c-.8863.35512-2.2009.78097-5,1.625-2.18039.65747-2.22865.66955-3.03125-.03125-.6901-.60258-1.74223-1.10152-3.21875-1.53125-.14194-.04289-.31644-.13359-.4375-.15625l-.34375-.0625c-.89745-.22482-1.89491-.41887-3.125-.625-1.88352-.31565-4.49594-.80462-5.8125-1.0625-6.1258-1.19988-12.5104-1.78353-18.09375-1.71875h-.03125c-.19867-.00046-.40097.02873-.59375.03125-1.57246.03372-3.11688.10644-4.53125.25-2.57804.26169-5.21342.50733-5.875.5625-.51293.04277-8.08393,1.47407-9.5,1.875s-12.21277,2.97245-13.75,3.3125c-1.83863.40672-2.38909.57533-3.59375.875l-.25.0625c-.02508.0058-.03752.02544-.0625.03125-.97808.24716-2.70126.61114-3.09375.75s-2.44332.7067-4.5625,1.28125c-.57198.15507-1.03258.34783-1.65625.53125-1.68705.49615-3.54939,1.0277-4.46875,1.375-.80944.30578-2.04378.76477-3.1875,1.1875-.23232.07956-.4539.16494-.75.28125-.34691.12765-.70257.26641-1,.375-1.23541.45103-2.82501,1.28247-3.96875,2-.00793.00529-.05482-.00519-.0625,0s-.02318.02579-.03125.03125c-.17377.11039-.41949.24163-.5625.34375-1.08459.77441-2.83441,1.81777-3.90625,2.34375s-2.87323,1.75045-4,2.6875c-.79078.65765-1.79889,1.64409-2.78125,2.65625-.20758.18142-.9504.88131-1.03125,1.03125-1.30377,1.41024-2.96574,4.15485-3.6875,5.15625-.09803.13601-.20817.45557-.3125.625l-.03125.03125c-.59497.82435-1.39588,2.41119-1.78125,3.53125-.20038.58239-.38546,1.08487-.59375,1.6875-1.20321,3.23197-2.22027,6.76517-2.3125,8.5625-.0101.19674-.04752.31069-.0625.46875-.0693.6854-.57122,1.38008-1.5,2.3125-.81463.62793-2.12308,1.85734-2.90625,2.75-1.05126,1.50606-1.21418,2.22628-1.5625,4.125l-.375,3.6875c0,0-.63268,2.96387-2.40625,3.875-.85941.41918-4.04174,3.2651-6.5,5.71876-.63165.63046-1.05474,1.10233-1.5,1.59374-.09516.10637-1.82576,2.59289-1.90625,3.53125-.0609.24533-.4248,2.15671-.5,3.1875 .05718,1.06553.37065,2.33495.625,3.34375 .43294,1.71715.91498,2.50178 2.5625,4.28125 .66573.71904 1.06011,1.05479 1.59375,1.5625 .35448.33728.91587.96466 1.0625,1.0625 1.31619.87832.3185,1.24193-.90625,1.59375-1.36576.35029-2.69674.93095-4.0625,1.28125-.87902.2656-1.30504.75136-1.46875,1-.14654.19048-.22897.37915-.3125.5625-.35668.78293-.20744,1.50797.59375,2.09375 .96661.70671 1.9777.71355 6.1875,0 1.95262-.33095 2.91771-.39982 3.125-.28125l.03125.03125c.00249.02261-.04431.0357-.0625.0625-.05555.06748-.17675.17104-.40625.28125-.15054.08014-.40343.15968-.625.25-.33808.13458-.74947.29544-1.25.46875-1.34969.41929-2.91439.77429-4.1875.90625-3.45458-.1597-4.47065.03393-5.9375,1.09375-.25519.18436-.51238.46072-.78125.71875-.09607.08639-.25632.21606-.34375.3125-.45538.47881-1.4408,1.69631-1.65625,2.0625-.17547.23056-.6943,1.49374-.71875,1.53125-.67509,1.03529-.6951,5.15639-.03125,7.5 .11137.39319.11858.66737.15625.9375 .00491.1289.63355,1.73087 2.21875,1.125 .94268-.32479 2.85069-1.07568 3.375-1.6875s1.71632-1.34067 2.28125-1.59375c.2402-.10759.76333-.47911 1.1875-.71875 .01723-.00973.0451.00987.0625,0l.09375-.0625c.53789-.30781.97116-.53258 1.5-.875 2.34154-1.51611 8.64739-4.86245 10.25-5.4375l1.09375-.40625c.05009.03353.08689.21765.125.375l-.09375,1.59375c-.20112,3.91919 2.11551,7.46263 6.8125,10.4375 3.73644,2.36651 8.00243,3.78082 13.15625,4.375 5.8987.68008 13.53186.87053 15.28125.375 .84781-.24015 2.5279-.50297 3.75-.5625l3.4375-.15625c1.66034-.07763 7.90806-.70941 11.25-1.15625 1.51341-.20236 4.87953-.50341 7.46875-.65625 2.22768-.13148 3.9665-.2629 4.875-.34375 1.00655-.03368 2.68176-.06598 3.875-.09375 .93038-.00401 1.33401-.01818 2.4375,0 2.5108.04136 5.2059.02644 5.96875-.03125s3.00547-.1284 5-.125 4.02214-.00551 4.5-.0625c1.61536-.19264 8.82332-.47526 12.125-.46875 1.80455.00357 4.37839-.16934 5.71875-.375 .64124-.09839 1.91143-.17662 3.375-.21875h.34375c1.50596-.03623 3.2309-.03896 4.84375,0 3.37005.0814 6.23069.07859 6.375,0s2.67751-.12677 5.625-.09375 6.60442-.01917 8.125-.125c6.17988-.43011 9.4596-.54166 14.09375-.375h.1875c.09748.00364.18302.02748.28125.03125 1.51431.05942 3.15743.13255 5.125.25 4.9242.29392 10.02681.74957 11.34375,1s4.57204.6551 7.21875.90625 6.27186.66254 8.0625.9375c2.99273.45951 9.64155,1.01072 15.59375,1.375 4.30061.31076 7.89452.48031 9.71875.34375 .09326-.00404.32875.00558.40625,0l1.3125-.15625c.44383-.06588.89941-.19818 1.34375-.28125 5.77289-1.07931 11.56818-3.52136 16.71875-7.21875 2.93156-2.10445 4.5874-4.28346 5.34375-7.03125 .28358-1.0303.56043-1.92139.59375-1.96875s1.44277.49315 3.125,1.21875c3.79127,1.63527 5.93181,3.21418 8.46875,6.125 .21226.24355.3976.32969.59375.5 .17767.22517.39066.37879.625.5 .08674.04461.16622.06626.25.09375 .01085.00322.0204.02835.03125.03125 .04443.02467.08905.06066.125.0625 .00913.00046.01892.0087.03125,0h.0625 .0625c.90348.06098 1.63027-.95967 2.34375-3.15625 .42297-1.30213 4.65499-7.98864 5.5-8.6875 .21627-.17887.89845-.97139 1.5-1.78125 1.15588-1.55615 3.52161-3.13416 5.15625-3.40625 1.2017-.2 1.6205-.96021 1.03125-1.96875-.02622-.0449-.4217-.37107-.5625-.46875-1.09829-.75486-3.78336-.68213-7.02817-.85455-1.56474-.08315-4.81367-.08288-6.00308.47955-.59439.28107-.8027.95741-.625,1.6875 .06334.71157-.30446,1.22392-.71875,1.96875-.25001.34375-.81102,1.56818-2.34375,1.65625-5.89964.02551-7.26578-.66749-6.74943-3.15625 .19434-.69268.34098-2.04834 1.86168-2.03839 1.16939-.25114 2.19084-.42427 4.06502-.64295 2.23293-.49076 4.70451-1.77721 7.01892-3.2172 3.33061-1.59734 5.24632-3.62213 7.75925-5.53588 2.68565-2.53388 3.70476-5.88511 3.73977-6.90641 .40181-2.98919-1.20708-5.33315-2.06558-5.97029-1.58878-1.17302-4.78124-3.42873-5.38466-3.81656-.41846-.50875-.96734-.85449-.66859-1.91745 .28524-.95962.66828-1.72364.85572-2.87886 .151-1.01744.33164-2.20932.34915-2.38851 .32871-3.56637-.09718-6.63424-1.25-9.25-.07862-.19374-.16539-.38455-.25-.5625-.10948-.22182-.16054-.47249-.28125-.6875-.4658-.82967-1.14885-2.27695-1.59375-3.34375-.19777-.61004-.536-1.24329-1.09375-2-2.39902-3.6268-7.80147-8.66571-12.15625-11.15625-.70367-.40243-3.35878-2.3429-3.84375-2.71875-.87372-.67711-3.33131-2.24454-6.5625-4.1875-.92144-.55407-3.65156-2.23426-6.0625-3.71875s-5.34176-3.14488-6.53125-3.6875l-2.84375-1.28125c-3.03414-1.41713-8.27716-3.47682-12.96875-5.1875l-.5625-.25c-1.15962-.5546-3.72435-1.36737-6.4375-2.125-.42325-.12276-1.0666-.33348-1.375-.40625-.83563-.19717-.97526-.22245-1.625-.375l-.96875-.21875c-3.00286-.69886-5.04011-1.1241-7.5-1.53125l-.15625-.03125c-.02917-.00602-.03302-.02524-.0625-.03125l-.96875-.15625-.53125-.09375h-.03125c-7.37635-1.19179-12.83991-1.84829-16.8125-2zm-9.28125,3.125c.73716.07623-.79004.54964-4.65625,1.46875-6.65235,1.58144-12.33474,3.48092-16.28125,5.34375l-.03125.03125c-.02722-.00068-1.42819.65702-1.875.90625-.03503.01954-11.58585,5.47779-13.625,6.34375s-6.94145,3.76086-8.21875,4.1875c-.84426.28201-1.94912.80336-2.46875,1.1875s-1.89671,1.02227-3.03125,1.40625c-.6677.226-.9392.37416-1.40625.5625-1.08083.37395-1.95428.6541-2.65625.875l-.125.03125c-.76004.14869-2.52779.5288-3.96875.84375-2.76354.60404-5.23562.61642-6.5.03125-.82494-.38181-.9202-1.55252-.25-2.375 .03968-.04635.07889-.10759.125-.15625 .69516-.71904 3.40243-2.37342 4.8125-2.9375 .29095-.11637.76612-.40231 1.0625-.625s2.47866-1.28806 4.8125-2.34375 4.54106-2.14721 4.9375-2.46875c.98567-.79943 4.61747-2.3692 6.53125-2.8125 .86518-.20041 4.85613-1.37052 5.4375-1.59375 1.10683-.42498 3.48484-1.207 5.875-1.9375 .27554-.08482 5.55997-1.62305 6.78125-1.90625 1.53809-.35668 3.26334-.82676 3.84375-1.03125 1.81135-.63819 8.96036-1.94118 10.25-1.875 .67595.03469 6.42953-.78946 7.6875-.9375 .60445-.07114.88262-.08649 1.3125-.125 .5232-.03731 1.03331-.07064 1.625-.09375zm-68.90625,1.03125c.34207.08197.05291.25383-1,.53125-.73506.19368-2.40724.76121-3.71875,1.25s-4.00591,1.86464-4.625,2.28125c-.39542.16155-1.0006.50032-1.65625.96875-.86586.61862-3.16825,2.05863-3.96875,2.53125s-2.40696,1.60671-3.5625,2.53125c-1.01012.80818-2.36427,1.77661-3.34375,2.40625-.24856.12814-1.57106.98463-2.15625,1.34375-.19189.12007-.42742.23578-.59375.34375l-1.4375.90625c-2.29322,1.41761-5.30109,3.19867-6.75,4-.87984.48661-5.63046,3.5906-6.71875,3.90625-4.47463,1.29786-5.95689-2.3583-2.5625-6.34375 2.76266-3.24372 6.33607-6.16977 9.3125-7.625 .95139-.46515 2.35885-1.25776 3.125-1.75s3.06123-1.64457 3.15625-1.71875c.85779-.38356 1.7388-.75694 2.78125-1.15625 1.90052-.58418 5.06531-1.58095 6.65625-2.125 .69364-.17084 1.17504-.24519 1.78125-.375 2.28279-.492 8.56948-1.44056 12.375-1.8125 1.57022-.15346 2.5642-.17572 2.90625-.09375zm84.34375,1.15625c1.22212-.05294 1.97297-.02644 2.875,0l.75.03125c.66314.04163 1.57557.10546 2.40625.15625 1.22271.13862 2.8147.30152 5.3125.5 5.84599.46455 14.0653,2.30357 14.75,2.46875s1.1591.38158 1.0625.46875c-.17909.16162-4.78442.49577-8.21875.59375-2.81684.08037-6.42043.47433-7.46875.8125-.50683.1635-2.62322.59807-4.71875.96875-2.14751.37989-4.87092,1.15107-6.21875,1.75-4.8328,2.14754-8.29561,3.56046-9.28125,4.0625-4.17642,2.12724-4.8913,2.52041-5.96875,3.34375-2.94864,2.45952-2.96002,3.22603-3.25,4.90625-.22494.82083.34365,1.97466 1.125,2.59375 .8771.69492 1.88321.89276 3.3125,1.15625 2.45979-.05023 6.854-1.18255 7.71875-1.375s2.23744-.53477 3.0625-.75 4.83228-1.05998 6.15625-1.3125 4.75456-1.42929 5.40625-1.625c.63515-.13325 1.23042-.24118 2.3125-.5625 1.55728-.46242 4.7219-1.29641 7.03125-1.875s5.40517-1.51614 7.875-1.75c2.30015-.22717 4.08432-.45128 12.59375,0 4.06057.21535 6.61042.41452 8.875.875s4.23068,1.17612 7.125,2.375c1.88909.78249 3.96884,1.57977 4.625,1.75 1.48026.384 2.00409.67409 6.46875,3.84375 1.97537,1.4024 3.66709,2.55823 3.75,2.5625s.733.47267 1.4375,1.03125c5.50259,4.36291 9.16801,8.35791 9.71875,10.59375 .11847.481.46392,1.26627.78125,1.71875s.97496,1.95148 1.4375,3.34375c.2667.80282.3553,1.36489.46875,1.96875 .0885.49163.09882.9721.15625,1.46875 .03229.70475.06576,1.38195 0,2.53125-.22367,3.9083-.71716,5.17973-2.75,7.125-.36213.34651-.41982.50477-.65625.78125-.88909.75853-1.82205,1.42374-2.625,1.84375-1.21583.49099-2.79984,1.00256-4.15625,1.31251-.79064.18065-1.71158.29607-2.75.375-.18141.01434-.3712.0499-.5625.0625-1.13313.06442-2.37478.06273-3.96875.03125-2.65692-.05248-5.58416-.02664-6.5.03125-1.58622.10028-7.47989-.20413-14.1875-.71875-1.70304-.13064-3.7219-.43354-4.46875-.68751-1.38237-.47008-6.35521-1.30073-11.3125-1.875-1.51078-.17502-3.65525-.54306-4.78125-.8125-1.94911-.46642-5.71139-.95959-11.15625-1.59375-.878-.14657-2.13912-.3223-4.125-.5l-.84375-.09375c-2.08033-.22407-5.47536-.48075-9.3125-.75l-.5-.03125-.90625-.0625c-.28197-.02736-.4605-.06018-1.03125-.09375-.4643-.03153-1.75917-.16555-1.84375-.15625-.05028.00553-1.27524-.04601-1.71875-.0625-8.81278-.58149-17.67299-1.02747-18.78125-.875-.04456.00613-.16973-.0059-.21875,0-.42973-.00131-1.46366-.04567-1.6875-.03125-1.0483.06758-4.21432.08964-7.0625.0625-1.42392-.01355-2.27728.05613-3.5625.09375-.43321.00123-.83391.01752-1.28125.03125-.17403-.03387-.37631-.0457-.625,0-.16025.02945-.35878.03957-.53125.0625-.25427.01921-.93179.00949-1.09375.03125-1.05209.1413-4.18254.24265-6.9375.25s-6.25066.19548-7.78125.40625-4.64758.55022-6.9375.75-4.49169.40308-4.875.46875-3.02323.17614-5.875.21875c-10.63022.1589-16.1706.48505-23.03125,1.375-1.62558.21087-5.32151.6489-8.1875.96875-7.18665.80204-12.55258,1.59518-14.34375,2.09375-.57895.09607-1.17237.17787-1.8125.25-.70995.06051-11.67215,1.56737-13.90625,1.62501-1.23645.0319-3.25861.15322-4.5.28125s-7.68061.81499-8.375.84375c-2.08316.0863-5.16065-.67809-9.6875-2.375-1.71955-.64457-2.72135-1.07082-3.5625-1.50001-.20685-.10078-.41945-.22126-.59375-.3125-.76121-.4402-1.32435-.87632-2.03125-1.5625-2.37466-2.30508-3.49238-5.27398-3-7.46875 .04773-.17311.05859-.36278.125-.53125 .00288-.00733-.00292-.02393 0-.03125 .12625-.31597.3067-.60995.5-.90625 .80573-1.11704 2.27683-2.57877 2.59375-2.5625 .13512.00693.39157.83762.5625,1.84375s.4237,2.14419.5625,2.53125c.73966,2.06261 1.21861,3.76873 1.1875,4.375-.04261.83035 1.34779,1.02377 2.03125.28125 .18108-.19674.26646-.60992.3125-1.125 .02789-.12554.13062-2.4716-.21875-3.03125-.00337-.00541-.21532-1.17033-.375-1.75-.90777-3.2954-1.29769-6.65906-1.09375-8.875 .02554-.1406.03285-.25162.0625-.40625 .07691-.40104.87818-2.96461 1.0625-4 .13598-.7639.30919-1.49579.5-2.1875 .16934-.61388.37741-1.18337.59375-1.75 .03738-.0979.05491-.21586.09375-.3125 .49631-1.23489 1.11857-2.35447 1.875-3.4375 .79745-1.14173 1.45617-2.19726 1.46875-2.34375 .04897-.5703 3.2453-4.05353 5.125-5.59375 1.08832-.89176 3.09576-2.31462 4.46875-3.15625s3.29723-2.08435 4.28125-2.75c.4582-.30994 1.13328-.68596 1.84375-1.03125 .0749-.03641.14289-.05784.21875-.09375 .74991-.35503 1.53099-.68815 2.1875-.90625 .55005-.18273 1.27992-.48904 2-.75 1.051-.3809 2.13172-.73816 2.9375-1.0625 1.35786-.54658 3.65171-1.25753 5.09375-1.59375s3.25791-.83162 4.03125-1.09375c1.39505-.47286 4.01134-.93971 4-.71875-.00324.06332-.93193.72371-2.0625,1.46875-2.15948,1.4231-4.76433,3.82138-6.6875,5.96875-.04046.04424-.11651.08102-.15625.125-.0147.01661-.01664.04592-.03125.0625-.41305.46865-.73953.8551-1.0625,1.28125-.15305.20099-.3726.43727-.5.625-.08822.13-.079.19402-.15625.3125-.06536.10377-.19435.24604-.25.34375-.10705.18797-.15735.3771-.25.5625-.15685.3036-.349.70318-.4375,1-.67132,1.82142-.60747,3.50163.1875,5 .06807.15092.13699.29964.21875.4375 .03412.05318.05769.10357.09375.15625 .15462.22583.315.3805.46875.5625 .38614.45709.77107.83211 1.25,1.0625l.34375.09375c.56405.20794 1.20886.36084 2.09375.40625 2.35083.12064 3.57139-.27808 5.875-1.84375 1.12898-.76731 3.203-2.05415 4.59375-2.875 2.64515-1.56125 6.30868-3.84795 8.96875-5.59375 .86154-.56541 2.16366-1.35924 2.90625-1.78125s2.05297-1.38631 2.90625-2.125c.21954-.19006.40831-.30586.625-.46875l.6875-.5c.32254-.19846 6.7144-4.2009 10.53125-6.125 .24063-.10819.51763-.2763.75-.375l.0625-.03125 .125-.03125c.60961-.25531 1.21883-.49251 1.84375-.71875 1.9538-.65057 4.47034-1.26246 7.5-1.84375 2.82651-.54231 4.52652-.65472 8.375-.5 2.65414.10672 5.37425.31478 6.03125.46875s1.71611.383 2.375.5c1.27502.2264 5.1293,1.07332 6.40625,1.40625 1.05366.2747.94065.82052-.21875,1.03125-2.78508.50621-9.08731,2.98348-11.1875,4.40625-.36782.24918-.45784.24239-.78125.4375-.77102.41019-1.53205.80404-2.15625,1.0625-.59991.20212-1.48708.63287-2.71875,1.25-2.57386,1.28964-5.9942,3.17479-8.65625,4.875-.68384.43675-1.48045,1.36539-2.09375,2.375-.25997.37196-.41678.77323-.5625,1.15625-.04877.11016-.11499.20587-.15625.3125-.02586.08585-.07275.16294-.09375.25s-.01626.18921-.03125.28125c-.05476.20636-.14747.45391-.15625.625-.02746.53508.24547,1.01821.65625,1.5 .02178.02554.03967.06847.0625.09375 .18722.21756.41959.41219.6875.59375 1.11707.81801 2.76579,1.40877 4.625,1.5 1.23961.06082 3.10625-.16532 5.125-.53125 2.92399-.53003 6.19274-1.35932 8.65625-2.34375 .58187-.2325 21.86125-11.22954 22.5625-11.375 .43959-.09117 9.4967-4.12274 10.5625-4.53125 1.85367-.71046 10.87489-3.3311 13.21875-3.875 .51444-.10763.93528-.24477 1.5-.34375 1.11805-.14527 5.45338-.62666 7.8125-.875 .57302-.06031 1.98362-.15716 3.125-.1875s3.6273-.10502 5.53125-.1875zm22.625,6.78125c.71818-.09196 2.11858-.08927 3.8125,0s3.66187.27496 5.46875.5c4.11379.51234 7.47189,1.15318 9.28125,2.09375 .92517.48095 5.00676,2.43564 5,2.5625-.00593.11159-3.30993.04907-7.375-.125h-.03125c-3.66941-.21565-7.5296-.3859-9.21875-.3125-.38477.01672-.77703.06727-1.15625.09375-4.99205.22363-9.23431,1.28132-18.875,4.0625-3.34146.88785-6.13943,1.60148-8.34375,2.15625-3.51529.76858-7.44965,1.74825-9.9375,2.46875-1.56231.45245-2.44361.67219-3.125.71875-.31255.00724-.61141-.00516-.90625-.0625-.04187-.00814-.65358-.20995-.96875-.34375-1.2991-.5515-1.1643-1.69369.3125-2.6875 2.48809-1.67436 6.5499-4.00515 7.78125-4.46875 .09743-.03746.21143-.08783.3125-.125 .53109-.19528 1.4919-.62465 2.34375-1 .23514-.10358.44584-.15339.65625-.25 .72655-.30299.88791-.35032 1.75-.71875 2.33079-.99612 5.10285-1.95831 6.15625-2.125s3.14184-.63546 4.65625-1.03125 4.656-.8242 6.96875-.96875 4.7682-.35181 5.4375-.4375zm-43.9375,47.75c.42197-.10054 5.4282.28383 9.0625.5 3.61684.21514 5.79365.36855 7.125.625 1.89649.07883-.11684,1.69136-2.73419,2.05556-2.06238.42491-3.09555.29991-5.40586.3287-2.69197-.30192-4.2909-.75003-5.54013-1.2118-1.3803-.6123-2.71845-1.23788-3.16473-1.5108-.7515-.4596-.61736-.96431.65741-.78666zm-7.875.0625c.84368.00937 1.80358.01441 2.25.0625 .29745.03448.54152.09011.75.15625 .10716.05814.22661.10543.3125.1875 1.13449,1.08396 2.6297,2.11466 4.29938,2.76235 1.45522.58685 3.53916,1.32452 5.63773,1.59761 2.11792.30849 5.24129.14949 7.52739-.00386 2.19293-.50386 3.87332-.62904 6.25425-2.26235l1.90625-1.28125 3.28125.375c1.81563.21317 3.37692.46075 3.46875.5625s-.10813.44696-.4375.78125c-.3517.28476-5.1216,2.98165-7.76505,3.95911-.34784.1286-4.78986,1.73579-9.59915,2.5027-5.48902.4249-7.87358-.39457-12.2608-1.8368-1.13584-.40527-4.6891-1.9424-5.34375-2.3125-2.28789-1.29346-6.41441-4.6169-6.09375-4.90626 .08145-.07349.88261-.16524 1.8125-.1875 .87971-.02105 2.6412-.09089 4-.15625zm-18.375.4375c1.31732-.00477 2.03749-.00033 2.34375.0625s.19563.16572-.125.375c-1.42461.92986-1.60478,1.18449-1.65625,2.1875-.08045,1.56794 1.60168,3.14898 3.5,3.28126 .94099.06558.94353.08386-.3125.53125-.71145.2534-3.44743.79263-6.09375,1.1875-4.2895.64007-5.54034.68779-11.375.375-3.39849-.1822-5.58381-.34067-7.3125-.5-1.50049-.17351-2.54623-.33659-3.15625-.46875-.15956-.05316-.3862-.09976-.4375-.15625-.34808-.38335 4.56557-4.89918 5.75-5.28126 .51291-.16547 1.00551-.25065 1.0625-.1875s-.16389.74349-.46875,1.5c-.04428.10992-.05642.17886-.09375.28125-.5601,1.53588-.35174,2.28969.90625,3.25001 1.26983.96935 2.29176,1.07644 4.34375.46875 1.63516-.48423 2.45589-1.21361 2.53125-2.28125 .04187-.59314.1187-.54839.625.3125 1.35622,2.30592 3.19897,2.87149 5.75,1.75 1.5679-.68929 2.52953-1.55803 2.875-2.5 .25725-.72341.18785-1.51396-.3125-2.31251-.15785-.25194-.38828-.4532-.625-.59375-.02949-.02299-.06586-.08136-.09375-.09375-.13235-.05875-.26064-.06328-.40625-.0625-.58273-.13891-1.17482-.00153-1.34375.53125-.11708.3693-.4046.58042-.65625.46875-.46194-.20499-1.7272.72307-2.03125,1.5-.21793.5569-.64515.2661-.78125-.25-.00877-.05332-.02424-.12808-.03125-.1875-.01725-.15602-.01989-.30179.03125-.46875 .18801-.61392-.10361-1.17427-.5625-1.40625-.0146-.00967-.04761-.05591-.0625-.0625-.01672-.00744-.01417.0061-.03125,0-.06763-.02491-.14594-.02268-.21875-.03125-.10071-.00644-.21039-.0277-.3125,0-.03366.00722-.05976-.01108-.09375,0-.04439.01447-.1068.09357-.15625.125-.30008.16005-.52915.41291-.65625.75-.0442.07735-.12028.13925-.15625.21875-.19535.43186-.29041.64666-.375.6875l-.0625-.03125c-.06993-.03063-.1168-.15724-.21875-.46875-.13579-.41495-.42569-.86223-.625-1-.69574-.48094.09579-.85813 1.59375-.78125 .83029.04261 1.60858-.05939 1.71875-.21875 .21373-.30916 3.03883-.48264 7.8125-.5zm8.4375,0c.31491.09405 1.2105.79917 1.96875,1.59375l.71875.75c.01682.12844.00175.2529-.0625.375l-.875.6875c-.55985.40856-1.32608.90748-1.78125,1.12501-1.58786.75884-2.50405.88496-2.25.3125 .12425-.27995.65421-.5297 1.15625-.5625 .1161-.00758.22867-.09007.34375-.125 .43809-.13298.85468-.41336 1.125-.84376 .03948-.06286.0292-.06847.0625-.125 .19538-.25392.33643-.52606.34375-.75 .00753-.23014-.09862-.58139-.25-.90625-.01864-.04457-.01018-.04554-.03125-.09375-.24157-.55249-.49537-1.14815-.5625-1.3125-.04935-.12089-.01121-.15634.09375-.125zm-4.46875.03125c.80149.04114.88597.11192.5.53125-.55817.60641-.53809.59788-1.03125-.0625-.34102-.45663-.27023-.50989.53125-.46875zm-125.21875.3125c.05291-.0271.36808.00885.46875.09375 .47576.40127.91562,1.64336.9375,2.875 .03352,1.88646.52483,3.6772 1.3125,5.28125 .59492,1.21152 1.33948,2.33351 2.28125,3.1875 .88812.80535 2.63336,1.58604 4.34375,2.125l.28125.09375c.15185.04869.28937.08361.4375.125 .37796.10081.70902.18646 1.0625.25 .17825.02907.35501.04527.53125.0625 .32754.0396.69444.10112.96875.09375 2.58282-.06939 6.79041-1.94286 8.125-3.625 .95978-1.20972 2.38031-1.92867 4.03125-2.09375 .55031-.05501 5.6717-.3968 9.8125-.53125l1.71875-.0625c.32278.03345.50195.07113.625.125l-.25.8125c-.92092,3.00711-2.46425,5.75888-4,7.09375-.98454.68875-1.9891,1.25164-2.9375,1.6875-3.44162,1.67098-7.88034,2.37191-12.09375,2.21875-5.50847-.20023-6.59211-.55815-9.75-2.375-5.66813-3.26108-8.30024-7.84316-8.21875-14.28125 .021-1.6594.16816-3.06277.3125-3.15625zm107.21875.8125c.88923.04563 1.11208.20035.9375.59375-.12469.28098-.05607.74695.15625,1.03125s.33037.76747.25,1.09375c-.11416.4634-.23845.39739-.53125-.34375-.22182-.56146-.41612-.8476-.71875-.90625-.13825-.03525-.30607-.02335-.53125.0625-.21281.08114-.46582.22196-.78125.40625h-.03125l-.03125.03125c-.85098.4962-.89327.48187-.59375-.15625 .17391-.37051.4189-.92332.53125-1.25 .14226-.4136.53969-.60376 1.34375-.5625zm146,.59375c.13367.00687.71585,1.6312 1.40625,3.87501 .67462,2.19255.64957,3.22743.08758,5.13116-.80936,1.93904-1.74645,2.90686-3.0517,3.72435-1.43589.83433-3.25658,1.37492-4.34838,1.55073-.02395.00384-.07085.02806-.09375.03125h-.03125c-4.30669.58639-10.80715-.16821-13.375-1.5625-.83171-.4516-2.57872-1.34673-3.875-2-2.40397-1.21148-5.5265-3.48364-5.5-4 .01492-.29084.21411-.33545 1.75-.37499l4.03125-.09375 2.375-.0625c.48891.05209.84689.11496 1.125.1875l2.8125,1.74999c2.0361,1.52003 3.27816,1.96916 5.5,2.125 4.9299.3458 8.02404-1.38092 9.03125-4.99999 .28611-1.02812.46272-2.38144.375-3.03126-.00825-.06114-.02449-1.18231.75-1.71875 .49836-.29118.95863-.53498 1.03125-.53125zm-158.03125.09375c1.25425.00238 1.4454.06474 1.4375.21875-.00283.03966-.10268.13744-.125.1875-.35362.70006-2.93503,2.60312-6.28125,4.59376-3.77552,2.24601-5.08013,2.62944-11.71875,3.53124-1.21968.10664-2.66565.22325-4.3125.25-2.33924-.0251-4.60363-.30508-6.125-.8125-2.17614-.72581-4.63006-1.72324-6.1875-2.49999-.13415-.06692-.28705-.15602-.40625-.21875-.4802-.25271-2.44737-1.34531-2.65625-1.625-.30356-.4065-.23922-.56612.34375-.71875 .47778-.12507 1.24072.12785 2.1875.75 2.09384,1.37589 5.49265,2.03892 8.9375,1.71875 .67753-.06298 1.28183-.17235 1.875-.28125 .35012-.06426.67367-.13622 1-.21875 .30756-.06949.71397-.11529.96875-.21875 .14725-.05977.31518-.14907.46875-.21875 1.40635-.53377 2.62665-1.30424 3.90625-2.40626 .91272-.78602 1.74758-1.33283 2.125-1.5 .52108-.08085 1.52114-.15414 2.65625-.21875 1.19584-.0316 1.95991-.02367 4.03125-.09375 4.31079-.14586 6.62076-.22113 7.875-.21875zm29.5.28125c.06184-.01982.1478.07086.28125.21875 .08416.09326.14603.19213.1875.3125 .01353.18057.02101.38296 0,.5-.20615.42094-.59641-.05795-.5625-.71875 .00996-.19386.03192-.29266.09375-.3125zm56.09375.0625c.47413.04198 4.61045,5.33551 7.03125,7.15625 2.40883,1.65408 6.78289,3.68607 8.90625,4.34375 1.96757.60943 3.31332.94715 4.09375,1.09375 2.72355.7879 4.77213.98039 6.90511.95544 1.78307-.14824 3.94155-.46248 5.7207-.67208 1.5261-.19583 3.52977-.66546 4.64625-.90722 1.16142-.36962 2.66054-.8358 3.95584-1.06039 .57888.42393.69397,1.05006.29416,1.27914-.31306.17942-1.89953.6555-3.7905,1.1142-1.41327.39411-2.99905.85142-4.76739,1.19136-1.94988.4288-4.0059.59321-6.05711.66611-2.10323.0032-3.95505-.30277-5.55114-.48458-3.15424-.27676-6.91816-1.67366-9.12963-2.46063-1.88546-.90791-4.05339-2.32696-5.53879-3.18385-2.49742-1.82437-3.53328-2.69926-5.5-5.34374-1.14561-1.78966-2.19602-2.86131-1.21875-3.68751zm-104.71875.59375c.032.04915-.42227.59224-.96875.9375-.69738.40735-1.97383.90273-3.5,1.21876-2.13009.37769-7.2679-.15112-7.25-.5 .01571-.30615 1.49172-.66287 4.75-1.03126 1.24202-.14043 3.05428-.28213 3.4375-.375 .29898-.07245 3.49925-.29917 3.53125-.25zm110.71875.09375 2.0625.03125-.15625,1.40626c-.06315.5094-.05049.94369.03125,1.3125 .0226.12488.07879.25209.15625.375 .02535.04024.03081.0828.0625.125 .05557.10851.08199.21619.15625.3125 .3179.41227.53447.81569.46875.875-.34038.30716-3.62836-2.48991-4.4375-3.78126-.40329-.64366-.31571-.6982 1.65625-.65625zm70.6194,2.41129c.63364.48258.84607.84936 1.44465,1.31347 .58429.56611.85794,1.11262 1.44058,2.2336 .36049,1.22047.40551,2.47073-.16088,4.01039-.29433.80006-1.10064,2.22369-1.78125,2.875-.35592.34056-2.59667,2.48594-3.4375,3.0625-.36592.15537-2.83986,2.23408-4.5625,2.96875-9.28488,4.7282-13.03614,3.43947-16.75,3.5-2.31036-.19618-3.2016-.32564-11-.78125-4.82983-.28218-10.01724-.60655-11.53125-.71875-3.90885-.28967-11.99632-1.55266-14.40625-2.25-2.43142-.70357-5.99786-1.33243-9.75-1.90625-.13625-.04737-.73289-.12801-1.125-.1875-.34061-.04929-.65673-.10902-1-.15625h-.0625c-5.35197-.73342-10.91018-1.24767-14.65625-1.1875-2.07982.03343-4.96571-.00167-6.71875-.09375h-.15625c-.52927-.03627-1.06152-.08915-1.625-.125l-.46875-.03125c-2.59043-.17643-5.90152-.4338-9.28125-.71875-4.07366-.34344-7.59389-.67061-7.8125-.75-.02084-.00757-.87164.00697-.96875,0h-.59375c-2.14278-.09695-7.44051-.13909-11.28125-.125-4.03764-.01029-8.38653-.01944-9.34375-.09375-1.22991-.09547-3.96284-.03803-6.0625.15625s-6.30785.2899-9.34375.21875c-10.14491-.23777-9.33846-.29603-23.25,2.28125-3.45233.63958-7.20035,1.21145-8.34375,1.28125s-2.72487.35925-3.5.65625c-1.43391.54942-6.0087,1.46729-9.78125,1.9375-1.14716.14297-2.78554.44799-3.65625.6875-1.31819.36257-4.17057.75386-10.78125,1.5-6.95864.78543-12.28803.74164-28.75-.25-2.79351.14422-3.69813.09035-4.8125.1875-.16009.08795-2.17163.0367-3.65625.28125-.14819.02554-1.29153.17261-1.75.25-1.53417.22986-3.1807.48301-4.25.59375-1.03048.10674-2.26827.26794-2.8125.375-2.06332.18181-2.81951.34309-4.1875-.125-2.14308-.73024-7.0478-4.67449-8.125-8.5-.25258-.89696-.36626-1.44185-.40625-1.96875-.00274-.05842.00157-.12937 0-.1875-.00139-.14704.02443-.28978.03125-.4375 .02468-.42647.06155-.8213.21875-1.40625 .25114-.93452.76199-2.12167 1.15625-2.71875 .05435-.07523.12861-.17296.1875-.25 .83381-1.08215 5.33212-5.32763 6.1875-5.87499 .2096-.09833.34473-.1166.4375-.03125 .0761.19358.15542.45068.21875,1 .72637,6.3007 4.05103,11.31662 9.5,14.31249 3.75911,2.06679 5.32064,2.46301 11.375,2.9375 3.88177.30422 5.01726-.13209 7.90625-.65625 1.32459-.39528 2.64893-.66617 5.03125-1.71875 1.69122-.74723 2.22328-.97065 2.53125-.8125 .05146.04198.09636.09596.15625.15625 .05551.066.13132.11759.1875.21875 .20803.37458 1.42102,1.0488 2.8125,1.5625 2.02052.74592 3.26174.96279 6.9375,1.15625 4.08048.21476 4.57089.00056 7.4375-.65625 1.62357-.47647 4.22029-1.54262 5.78125-2.375s7.61783-5.54041 8.75-6.875l.6875-.78125 2.625.6875c2.28815.60241 3.14498.66045 6.875.46875 5.86003-.30118 8.58553-.74689 12.53125-2.03125 1.58928-.5173 1.75241-.51497 3.96875.1875 .40004.1268.93794.23206 1.34375.34375 .33804.13709 3.22176.77473 4.09375.875 1.69698.29245 3.60425.58541 6.65625,1 1.21804.16547 2.32853.30662 3.4375.40625 .59961.07436 1.30683.10987 2.09375.125 3.07619.16838 5.80358.08253 8.28125-.3125 1.43656-.22902 3.54009-.53988 4.6875-.6875 3.74284-.48152 8.41102-2.2735 10.5-4.03125 1.76305-1.48349 4.58085-2.41851 5.15625-2.21874 .06321.02122 1.1527.44395 2.0625.96875 1.66395.93829 4.27607,1.74386 7.30671,2.65508 3.38828.80196 7.24208,1.05484 12.47839.12037 3.8855-.96373 6.47596-1.67319 7.1034-1.89236 2.22457-.77701 7.87491-3.12154 8.83025-3.69559l1.71875-1.03125 .84375.96875c.46165.53414 1.15721,1.90479 1.59375,2.4375s1.395,1.73583 2.125,2.65624c.3016.38026 1.96225,1.81675 2.5,2.1875 .56961.38885 2.88282,1.80411 3.5,2.15625 1.77587,1.01331 3.02622,1.63097 4.21875,2.15625 .70694.31139 2.99713,1.03384 3.125,1.0625 1.2967.32636 2.75375.62548 4.90625.96875 2.46013.3923 3.95149.59639 5.3125.6875 1.26843.08493 2.39742.07422 4.125,0 3.38499-.14542 5.80099-.71952 10.48881-1.8912 4.97545-1.40664 5.02587-4.01148 5.07369-4.07755s1.50638.66926 3.25,1.625c4.74213,2.59934 6.21449,2.72981 10.03125,3.5625 1.32927.21067 2.71404.30322 4.1875.3125 2.70193.13407 3.52016-.15323 5.12711-.55942 .96472-.24387 2.91379-.89005 3.95179-1.38522 2.60497-1.2427 3.59207-3.01821 4.21932-4.26234 .44705-.97334 1.30482-3.36558.82427-4.99959-.22409-1.1372-1.62141-3.1126-1.4026-3.45738 .51511-.22871 1.14087.46766 1.77451.95024zm-64.4944-1.44254c.77886.03996 1.35483.25295 1.34375.46876-.01224.23905-.35371.26297-.90625.09375-.06885-.0211-.11615-.01757-.1875-.03125-.11434-.07648-.23544-.18354-.3125-.1875-.04064-.00207-.17821.09269-.25.125-.25625.01696-.47743.10855-.625.21875-.39783.29712-.49137.25335-.46875-.1875 .02169-.42242.36482-.55346 1.40625-.50001zm-188.46875.50001h.03125c.09422.02691 1.97658,1.2218 3.1875,1.6875l4.78125,1.84375c1.42832.55303 5.17578,1.37993 5.34375,1.53124 .04223.31535-.54199.76924-1.75,1.34375-1.40751.66939-2.19079.82615-3.90625.71875-2.1956-.13747-3.85164-.70029-5.09375-1.75-.20642-.18451-.94173-.94392-1.09375-1.15625-.43658-.60975-.78954-1.3323-1.09375-2.15624-.07344-.19891-.52354-1.58272-.53125-1.8125 .01828-.11802.05988-.21069.125-.25zm192.53125.1875c1.03999.11203 2.93236.3922 6.03125.90625l3.78125.625c.5651.09385 1.33855.20298 1.75.25 .5441.0622 1.26718.56605 1.59375,1.03125 .00526.0075.02618.02377.03125.03125 .00361.0067-.00347.02455 0,.03125 .08898.13721.15359.25908.15625.375 .00365.0166-.00297.01547 0,.03125-.02206.14755-.43075.43714-.90625.62499s-.89147.55548-.90625.84375-.17695.5414-.375.53125c-.22303-.01143-.26722-.46845-.09375-1.1875 .23558-.97652.17956-1.21793-.40625-1.43749-.84653-.3173-2.12067.24417-2.15625.9375-.0074.14418-.07136.23443-.125.31249l-.03125.0625c-.19377.20811-.53845.08886-.78125-.37499-.42154-.80535-1.29468-1.20163-2-1-.16764.00929-.31402.08189-.4375.15625-.39769.22645-1.01714.28637-1.53125.15625-.12924-.0327-.26849.00833-.40625,0-.09238-.01648-.16227-.03707-.25-.03125-.3246.01638-.6328.08454-.8125.21875-.46207.34508-.51861.25586-.40625-.4375 .06176-.38092.03935-.54535-.125-.65625-.05217-.28933-.33173-.33423-.9375-.15625-.80292-.0147-1.05592-.14423-1.03125-.625 .01798-.35009-.21037-.83705-.53125-1.0625-.30287-.21279-.13374-.26832.90625-.15625zm-63.03125.875c.06745.07479.39516.3414-.25.78125-.33595.22905-3.41039,1.92023-3.875,2.15624-.4497.21798-.87867.44086-1.375.65625-.15386.06675-.31319.12219-.46875.1875-1.07961.43173-2.13911.79621-3.21875,1.09375-.73749.18115-1.65066.33518-2.5.5-.27.02743-2.85103.42827-5.09375.78125-3.39057.37189-9.12291.29534-11.75-.15625-1.09597-.07955-3.70775-.35058-5.90625-.75-1.51537-.20793-5.52845-1.2618-5.6875-1.28125-1.11637-.17975-1.06128-.53604-.65625-.71875 .44388-.1836 6.86883,1.45794 12.6875,1.9375 1.9034.15686 3.38844.22925 4.78125.25 .3397.01135.66237.02052 1.15625,0 2.33697-.03796 4.69446-.28016 8.625-.84375 3.35355-.48086 3.99604-.65142 8.1875-2.15624 1.91639-.68802 5.27627-2.51227 5.34375-2.4375zm115.67208-1.03782c.44618.91557.15648,1.60609-.18596,2.77702-.3531,1.51298-2.55763,2.3394-3.63986,2.70235-1.27181.33158-3.20035.43295-4.16955.30787-1.4308-.3627-1.84797-.54966-3.41843-1.50097-.83994-.3868-.6562-.76169.55942-.99382 .67148-.12823 2.22472-.31075 4.04399-.5 1.72705-.3737 2.3639-.60953 3.74846-1.26177 1.33843-.69834 2.69392-2.1391 3.06193-1.53068zm-197.29708,1.60032c.50816-.00968.189.93791-.5,1.5-.38536.31437-.77704.97109-.875,1.46874l-.15625.78125c-.03482-.00851-.05979-.06587-.09375-.09375l-.3125-.9375c-.062-.18583-.17043-.31262-.25-.46875-.11856-.38514-.24833-.58539-.4375-.59374-.02896-.01419-.06801-.06188-.09375-.0625-.49041-.01178-1.48852,1.20914-1.75,2.06249-.01971.06454-.05334.1242-.0625.1875-.00342.01927.00237.04385 0,.0625-.04745.37318-.35553.67167-.65625.65625-.72057-.03697-1.3991.59541-1.4375,1.34375-.01693.32987-.17952.70512-.375.8125s-.35856-.05503-.34375-.34375c.03723-.72547-.95246-1.27873-2.0625-1.125-.77235.10696-.94075-.0248-1-.78125 .07971-.5181.05083-.75725-.21875-.84375-.14348-.15494-.36235-.19459-.78125-.1875h-.6875c-.08943-.03212-.18443-.07747-.1875-.15625l.53125-.875c.41894-.71743 3.37683-1.24219 3.90625-1.28124s2.43054-.30703 4.25-.59375 3.45114-.52853 3.59375-.53125zm3.53125.84375c.077.00394.72682.44537 1.46875.96875l1.375.96874-1.21875,1.21875c-1.43484,1.46241-3.76272,3.12401-5.1875,3.71875-1.19757.49992-2.01393.81535-2.75,1.0625-.20616.06149-.41522.13014-.625.1875-.56257.1649-1.08253.30797-1.65625.40625-1.73403.29705-3.0384.27369-1.90625-.03125 1.38518-.3731 2.27273-1.21981 2.59375-2.34375 .03926-.09161.12187-.19318.125-.25 .00224-.04047-.02991-.08441-.03125-.125 .0035-.01804-.00298-.04455 0-.0625 .0131-.09611.05739-.1816.0625-.28125 .03115-.60708.13248-.68178.4375-.34375 .49886.55283 2.12183.65702 3.125.1875 2.19187-1.02588 3.44745-2.28961 3.75-3.78125 .16649-.82081.36051-1.50394.4375-1.49999zm159.1875.6875c.25295-.07553.80089-.04451 1.875.0625 .67837.0676 1.18125.15503 1.53125.25 .18497.08445.34983.18138.53125.28125 .01166.02817.03861.06414.03125.09374-.05501.22112.24044.53602.65625.6875 .86088.31361 1.93517,1.40529 1.90625,1.96875-.02206.42957-2.45141,1.36829-4.75,1.90625-.38448.08724-.72484.20388-1.125.28125-.18191.035-.37955.06856-.53125.09375-.16729.02982-.33222.03498-.5.0625-1.09409.12357-1.04376-.18247-.21875-1.15625 .98174-1.15882 1.04989-1.75203.5-3.87499-.10204-.39391-.15921-.58072.09375-.65625zm-24.4375.4375c.22519-.06243 1.24158.03987 2.25.21875 1.41877.25168 1.95138.51591 2.34375,1.18749 .47181.8075.47373.85832-.09375.8125-.89502-.07226-4.98077-2.08543-4.5-2.21874zm21.125,1.43749c.07053.01264.16399.0888.28125.21875 .1572.17424.22402.34277.21875.46875-.01551.04475-.0087.08931-.03125.125-.24226.15761-.61636-.24711-.59375-.6875 .00552-.10794.05444-.13765.125-.125zm-7.15625,1.03125c.06951-.00843.0755.12135.0625.375-.01643.32041.12302.58403.3125.59375s.60631.30679.9375.65625 .89925.81819 1.25,1.0625c.62175.43304.63953.45992-.03125.40625-.72385-.05794-.93855-.1242-3.9375-.90625-1.03103-.26888-2.24712-.55016-2.6875-.625-.82003-.13937-1.41409-.53682-.84375-.5625 .16671-.00753 1.10075.01261 2.0625.03125h.0625c.10367.03352.183.05086.28125.0625h.15625c.14355.0005.29353-.04486.4375-.09375 .13045-.02609.28429-.01362.40625-.0625 .50329-.0842.85993-.2124 1.09375-.5 .22732-.27959.36802-.42909.4375-.4375zm-142.46875.28125c.17515.03963.33035.10795.53125.25 .38807.27438.22427.63438-.875,1.84375-1.62007,1.78234-2.46111,2.39971-6.0625,4.4375-2.81597,1.59339-5.12097,2.41938-8.1875,2.9375-1.55013.44336-5.14588.32734-5.28125.34375-2.97526.00902-6.37059-1.7907-7.24537-2.07986-.30403-.27842.56586-.92914.69002-1.1634 .3042-.23034 1.18356.33067 3.1931.59935 4.46938.23617 11.60668-.10749 14.89351-1.82484 .99396-.51934 2.73938-1.35778 5.5625-3.6875 1.67875-1.38535 2.25583-1.7751 2.78125-1.65625zm147.78125,2.09375c1.03149-.00479 2.07977.36068 1.5.6875-.12968.07309-.44191.12268-.78125.15625h-.03125c-1.03838.09485-2.63651.00551-2.625-.21875 .0051-.09941.45227-.30213.96875-.46875 .28011-.09036.62493-.15467.96875-.15625zm-171.125.8125c.1004.00498.20956.05505.3125.09375 .07059.02999.14563.04122.21875.09375 .16371.11763.32211.26929.5.5 .43966.57026.94839.73833 2.46875.78125 1.72919.04883 2.59208.31657 2.1875.65625-.08272.06945-1.26225.12309-2.59375.15625-3.55128.08841-4.6703-.35803-3.90625-1.625 .25289-.41934.52745-.64247.8125-.65625zm71.4375,5.03125c5.70035-.06144 11.50936-.04239 12.5625.25 .63314.17578 7.81138-.12542 8.09375.1875 .11414.12651-.22242.68456-.75,1.25-.71298.76413-.9742,1.41952-1.03125,2.53125-.00423.08277.00262.14392 0,.21875-.00144.021.00107.04162 0,.0625h-.03125c-.00223.05093.03084.10691.03125.15625-.00603.92877.17593,1.22123 1.03125,1.8125 2.30138,1.59089 11.2267,2.37156 14.5,1.25 .36268-.12428.69033-.27431 1-.4375 .19993-.10535.38572-.25565.5625-.375 .04028-.0272.08596-.03465.125-.0625 .05253-.03957.10767-.08358.15625-.125 1.65953-1.27716 2.10105-3.16255.875-4.78125-.44477-.58724-.78839-1.17331-.78125-1.3125 .00357-.06959.36012-.09579.9375-.0625s1.3463.1299 2.21875.25c1.74493.24021 9.76163.77171 17.8125,1.21875 15.05153.83575 18.03377,1.14733 23.03125,2.28125 7.00812,1.59012 8.61881,1.89704 12.9375,2.53125l2.28125.34375c1.16331.20927 2.21336.4042 2.625.65625l.96875,1.03125 .0625.0625c.05888.07885.1199.14087.1875.1875 2.4608,2.42015 6.5245,3.52543 10.53125,2.8125 1.92161-.34193 2.31585-.54899 3.15625-1.6875 .60162-.81504 1.09561-1.17706 1.5625-1.1875 .17116-.01936.59208-.01828.8125-.03125 .80387.03635 2.75364.08977 5.3125.09375 3.06453.00475 5.19678.13275 5.21875.3125-.02031.03222-.36624.6032-.71875.875-.58826.45358-.7356.88953-.71875,2.1875 .00033.02655.30364,1.77267 1.5625,2.78125 1.2423.92577 2.05779,1.24039 4.0625,1.53125 2.77129.40208 6.1398-.07457 7.3125-1.03125 1.02977-.84006 2.26811-3.39668 2.09375-4.28125-.15232-.77253-.08907-.77105 2.84375-.65625l2.84375.125-.59375.59375-.15625.09375c-1.06707.82659-3.97997,4.10952-4,4.5-.00757.14737-.80401,1.30357-1.75,2.5625s-2.04479,2.99439-2.46875,3.875-.94142,1.60477-1.15625,1.59375-1.16282-.78485-2.09375-1.6875-1.86043-1.64589-2.0625-1.65625-1.18084-.42777-2.15625-.9375c-.45149-.23593-.80173-.35592-1.21875-.5625-.01159-.00576-.01967-.02552-.03125-.03125l-.0625-.03125c-2.65111-1.30733-4.88443-2.19676-9.09375-3.46875-1.23258-.37247-2.14592-.62694-2.96875-.84375-.01875-.00495-.04387-.02637-.0625-.03125l-5.09375-.75c-1.28179-.09527-2.84858-.18832-5.0625-.3125-2.64102-.14817-5.0924-.21742-7.4375-.25h-.53125c-4.67749-.04769-8.83744.107-12.59375.53125-1.62416.18343-5.05628.42001-7.625.5-.77698.02422-1.07108.05409-1.8125.09375-.80717.03777-1.65632.1325-2.28125.1875-.55304.04974-1.67925.07839-1.90625.125-2.03371.41755-5.79741.59612-5.78125.28125 .008-.15561.13624-.28869.28125-.28125 .42417.02177 1.61904-3.16593 1.6875-4.5 .00062-.01196-.00057-.01936 0-.03125s-.00035-.02337 0-.03125c.00192-.03689-.00099-.05711 0-.09375 .05577-1.64996-.34135-2.54227-1.875-4.21875-.18428-.20144-.28682-.25291-.4375-.40625-.64505-.73468-1.0237-1.04337-1.6875-1.15625-.08424-.01586-.21864.01143-.3125,0-.15811-.01719-.30314-.05157-.5-.0625h-.125c-.48951-.02511-.93418-.01514-1.34375.03125-.18682.01929-.3348.05752-.5.09375-.23764.051-.47918.10445-.6875.1875-.06833.0311-.12293.08903-.1875.125-1.15912.55225-1.82304,1.72844-2.15625,3.59375-.01208.06506-.02144.18169-.03125.25-.10948.68804-.22137,1.36274-.25,2.25-.0652,2.02169-.24641,3.23571-.5,3.375-.21837.11997-1.63702.58016-3.15625,1.03125-2.9601.87891-4.95974.85196-10.5-.1875-1.31711-.2471-3.24529-.60816-4.28125-.78125s-2.00827-.39812-2.15625-.5c-.23319-.16056-1.70774-.52215-5-1.21875-2.14839-.45458-6.84377-1.06699-8.25-1.09375-2.2613-.04304-6.15454.6607-9.15625,1.6875-2.34002.80048-3.65224,1.07002-4.5625.90625-.16351-.02943.23578-.54039.875-1.125 2.64023-2.41463 3.29461-5.01072 1.9375-7.625-.24635-.47457-.56658-.90689-.9375-1.3125-.12819-.19398-.32761-.42968-.6875-.65625-.15547-.13634-.32215-.25721-.5-.375-.92918-.64787-2.04445-1.11401-3.21875-1.3125-.4747-.08024-.71711-.06009-1.03125-.0625-.14406-.00743-.37472-.05154-.5-.03125-.08175.01234-.20128.04135-.28125.0625-.21414.07336-.47112.20962-.75.375-.19031.10152-.32243.09847-.5625.25-1.50895.95248-2.32072,1.93716-2.96875,3.625-.14293.31482-.26458.59716-.34375.90625-.15614.51108-.28776,1.0093-.4375,1.65625-1.25168,5.4082-1.45305,5.59463-5.3125,4.84375-3.67756-.71549-11.83313-1.36103-14-1.09375-1.10206.13596-3.038.40518-4.3125.59375l-1.59375.25c-.31208.00919-.63535.00295-.84375-.09375l-1.4375-2.125c-.42671-.63817-.71788-.93973-1.03125-1.3125-.62829-.74734-1.18324-1.24948-2-1.53125-.99983-.49442-1.74503-.73055-2.78125-.6875-.85966.05212-1.82654.06862-2.5.375-.5636.34355-1.22128.70169-2,1.28125-.70773.4947-1.52946,2.01244-1.5625,2.65625-.01518.29567-.32967.85171-.6875,1.25-.6233.6938-.9425.731-7.375.5-3.69271-.13261-6.23161-.33142-5.65625-.4375 2.74705-.50651 4.59611-1.60152 7.8125-4.59375 3.06846-2.85459 3.42811-3.08751 5.71875-3.65625 1.34697-.33444 3.78209-.7544 5.40625-.9375s3.6639-.538 4.53125-.78125c1.78581-.50081 8.55617-1.74843 10.65625-1.96875 .76401-.08017 2.01088-.32689 2.78125-.53125 .52182-.13841 1.15571-.22867 1.84375-.3125h.0625c.4997-.05954 1.00311-.09695 1.5-.125 .19443-.01097.40756-.02535.59375-.03125h.03125c.65697-.01929 6.26841-.15731 11.96875-.21875zm28,.34375c1.25285.02739 2.45779.25439 2.78125.6875 .22129.29632.80444.56768 1.3125.59375 .85352.04379 3.03547,1.99626 3,2.6875-.00731.14277-.59963.46295-1.3125.71875-.81307.29175-4.52138.41514-7.03125.34375-1.03695-.08277-1.94972-.17349-2.78125-.3125-.32337-.08586-.59437-.17805-1.0625-.28125-1.00274-.22108-1.27891-.43674-1.25-1 .02424-.472.92865-1.52094 1.625-2 .23214-.15966.45282-.25694.59375-.25 .11313.00558.57487-.26848 1.03125-.625 .53051-.41443 1.84092-.5899 3.09375-.5625zm-22.125,4.25c.32802-.10253.63887-.06232 1.15625.0625 1.43501.34619 2.58553,1.20964 3.03125,2.3125 .13502.33407.20825.64757.25.9375 .00862.09636.02934.18141.03125.28125 .02717.94012-.50926,1.77278-1.8125,3.03125-.96952.93622-1.86686,2.06026-2,2.5-.33833,1.11754.24582,2.35276 1.34375,2.875 .20211.09611.39724.14607.59375.21875l.0625.03125c1.51917.54389 2.97642.42321 5.625-.5 5.02528-1.75165 6.11384-1.92106 10.21875-1.6875 2.09563.11922 4.5635.42721 5.5.6875s2.30974.57983 3.0625.71875 1.53705.4013 1.71875.5625 1.24414.41888 2.375.59375 2.52966.41759 3.09375.53125c3.61767.729 5.18282.91757 8.46875,1.09375 2.48818.13341 3.82172.08618 4.125-.1875 .12366-.11159.29653-.21236.46875-.28125s.36235-.10082.5-.09375c.27535.01413 1.47835-.40906 2.6875-.90625 3.06466-1.26015 3.74889-2.28596 3.71875-5.6875-.0251-2.8342.44388-4.31868 1.46875-4.53125 .56735-.11768 1.4221.48096 2.03125,1.21875 .25987.33203.36962.54037.5.78125 .03478.07897.09953.13979.125.21875 .33277,1.03157-.28015,3.26887-1.125,4.03125-.95038.85759-1.17198,2.91909-.40625,4 .04656.06571.15869.09347.21875.15625 .13839.15124.30894.2939.5.40625 1.08455.70071 2.86597,1.05605 3.78125.625 1.22435-.57658 7.0956-1.25927 10.9375-1.28125 1.2163-.00696 1.95245-.0907 2.9375-.15625 .2941.00321.54912.00678.8125-.03125 .3476-.03279 1.11024-.05722 1.28125-.09375 .52396-.11193 2.64136-.2178 4.59375-.3125 1.16071-.07225 2.18949-.11988 3.4375-.1875 1.43651-.0589 3.20344-.12105 3.5625-.15625 1.45714-.14287 15.13963.57328 17.21875.90625 2.84915.45628 4.65981,1.11212 5.84375,2.09375 .00799.00663.02332-.00666.03125,0l.03125.03125c.37805.32325.71047.68858.96875,1.09375 0,1e-005 .42647.36625.375,1.40625-.1904.68272-.55924,1.29408-.90625,1.96875-.98051,1.68919-2.12491,2.50049-3.9375,3.84375l-.4375.3125c-.76562.538-1.63512,1.07045-2.59375,1.59375-.28518.15693-.63215.30898-.9375.46875-1.06508.54434-2.18341,1.09658-3.5,1.65625l-1.90625.8125c-.6199.22263-1.24004.43276-1.875.625-1.50155.42577-4.38703,1.01513-5.96875,1.1875-.78999.05703-1.84207.09223-3.46875.0625-.80275-.01469-1.88518-.06195-2.8125-.09375-4.98695-.20967-11.49245-.65566-14.59375-1.0625-2.45312-.32181-5.92435-.73632-7.71875-.9375-6.51151-.73008-12.89726-1.55757-13.59375-1.75-1.10492-.30526-16.40497-1.08861-20.65625-1.0625-2.09034.01284-5.18746.16736-6.90625.34375s-6.63179.31092-10.90625.3125-7.85567.06384-7.96875.125-2.20656.03475-4.65625-.0625-5.56732-.05308-6.90625.125-5.14193.36121-8.46875.40625-7.77722.21756-9.875.375c-2.03503.15273-3.81642.25436-4.1875.25h-.125-.0625c-.3243-.01155-1.72826.01899-3.21875.03125l-6.40625.03125c-8.70849.06792-16.22778.55396-24.09375,1.53125-3.65376.45396-6.10802.71192-8.3125.90625-.54135.03725-.87462.08354-1.625.125-1.75827.12789-8.07097.63569-8.09375.65625-.19821.17886-3.15183.1767-6.90625-.03125-2.88298-.15968-4.59651-.30823-5.96875-.5s-2.39337-.43343-3.8125-.875c-4.84936-1.50886-8.5965-3.92795-10.65625-6.65625-.25536-.374-.52864-.70634-.75-1.09375-.02374-.04156-.03926-.0835-.0625-.125-.21695-.38752-.36811-.75868-.53125-1.125-.174-.47978-.27881-.98142-.34375-1.46875-.19832-1.48826.92192-2.84377 2.75-3.34375 .65066-.17796 1.96804-.61813 2.9375-1s2.03782-.7828 2.375-.875c.38407-.105.56375-.42162.59375-.8125 .00093-.01208.03066-.01901.03125-.03125 .00753-.02871-.03848-.49736-.125-.65625-.09195-.24474-.22795-.46701-.4375-.6875-.69745-.73388-.51848-1.43669.25-1.9375s2.12092-.80477 3.8125-.71875c2.08095.10583 3.37092,1.16616 3.8125,3.125 .05653.25074.15062.38895.21875.59375 .07752.29888.14191.49425.21875.84375 .01652.07516.14569.15091.21875.21875 .05601.05267.0732.10968.15625.15625s.18014.0861.28125.125c.15165.08907.36911.11055.5625.15625 .63816.15081 1.48287.14811 2.75-.09375 4.61594-.88109 15.61004-1.50593 26.3125-1.46875 1.80442.00628 3.73881-.05152 4.3125-.125 .98234-.12583 9.13778.00662 13.90625.21875 1.9477.08665 2.28264-.01318 3.25-.90625 .59155-.54612 1.07913-1.215 1.09375-1.5 .05438-1.05967 1.30545-3.59778 3.34375-3.96875 2.77462-.71999 3.13371.90601 3.875,1.6875 .29442.4155.56884.74279.8125,1.1875 .06509.60401 1.97185,3.02886 2.625,3.3125h.03125l.75.0625c.35183-.02591.74252-.11275 1.125-.25 .69563-.2496 1.75185-.4965 2.34375-.5625s1.9001-.22672 2.90625-.375c.17705-.02609.60649-.01928.875-.03125 1.66726.0209 3.67476.10798 5.625.21875 1.96859.16488 3.97311.36914 5.3125.625 .28289.05404.89562.09922 1.34375.15625l1.59375.34375c.79006.17408 1.80014.10684 2.75-.09375 2.54042-.19969 3.49733-1.51129 4.46875-5.84375 .66476-2.9647.84098-3.74156 1.4375-4.4375 .19884-.23199.42519-.4569.75-.75 .48522-.43784.82824-.67872 1.15625-.78125zm74.09375,1.0625c-.35617.01063-.69404.08987-1.03125.1875-.54413.03483-.94571.20114-1.375.6875-.70476.54576-1.20412,1.29341-1.25,2.1875-.00913.1781.0602.34972.09375.53125 .00901.09518.04221.21954.0625.3125 .03814.12786.06863.21769.125.34375 .10782.27256.25768.53531.46875.78125 .5578.72026 1.35972,1.33686 2.28125,1.59375 1.94419.54195 1.88537.53415 2.125.1875 .11707-.16936.65481-.40614 1.21875-.5 1.10244-.18349 1.36689-.57902 1.59375-2.5625 .16148-1.41184-.58223-2.43713-2.5-3.375-.57473-.28106-1.20302-.39317-1.8125-.375zm-126.75.90625-1.21875,1.15625c-.41477.38736-.90722.73228-1.40625,1.09375-.43344.28642-.912.63651-1.25.8125l-.09375.03125c-.50548.25539-.99979.42642-1.5.5625-1.83175.41268-3.66305.03335-5.125-1.125l-1.125-.84375 2.9375-.4375c1.61242-.23603 3.42142-.58088 4-.75s1.90514-.35347 2.9375-.40625l1.84375-.09375zm126.75,1.71875c.73401-.00421 1.7157.51275 1.6875,1.0625-.00975.19029-.14911.34367-.3125.4375-.02463.01439-.03524-.01195-.0625,0-.13875.06128-.31634.0886-.5.09375-.17754-.00453-.37276.00074-.5625-.0625-.22987-.07659-.45524-.21011-.65625-.375-.52799-.4331-.57941-.60751-.21875-.9375 .14468-.13238.38033-.21735.625-.21875zm25.84375.03125c1.49644.09474 3.66998.51353 3.65625.78125-.00837.16314-.29285.28685-.625.28125s-1.29962.0281-2.15625.0625c-.3067.0123-.54857-.03676-.8125-.0625l-.3125-.03125c-.10878-.02655-.2388-.03062-.34375-.0625-.27165-.07267-.50667-.15704-.65625-.28125h-.03125c-.55575-.46993-.54259-.51779.125-.65625 .24922-.05169.65742-.06283 1.15625-.03125zm-200.53125.28125c2.16357.01173 5.30133.12125 10.25.34375 7.75315.3486 13.34679.43305 15.6875.25 2.72-.2127 4.35359-.27962 5.53125-.125s1.91525.5311 2.8125,1.21875c.83848.64258 1.66424,1.17829 1.84375,1.1875s.50136.24016.71875.53125 .92251.65811 1.5625.8125 1.24855.45168 1.34375.625c.09211.16766.11393.26838.0625.28125-.0475.00379-.13718.02772-.1875.03125l-4.59375-.0625c-1.1649-.01759-2.16711.0409-3.4375.0625-.91684-.00112-1.69226-.00627-2.5625.03125-.47546.02041-1.25289.03682-1.59375.0625-1.46589.11041-2.24884.13701-3.125.1875-.63353.03802-1.156.06757-1.8125.09375-.98897.03462-1.96282.07171-3.71875.09375-3.46142.04347-5.23364.20222-8.65625.75-1.81565.2906-2.78158.28489-3.1875,0-.06747-.08845-.14748-.27528-.21875-.40625-.0032-.03738-.03335-.05279-.03125-.09375 .04813-.93782-1.29737-2.51583-2.65625-3.3125-.2257-.1395-.4698-.2639-.71875-.375-.77614-.2654-2.24138-.61997-3.40625-.59375-1.1889-.31363-3.80906.27523-4.90625.96875-1.23625.7814-2.10406,2.26504-1.90625,3.21875 .0141.06796-.00429.09834 0,.15625-.05997.22788-.18049.40879-.375.5625-.25825.14359-.60462.26621-1.3125.4375-1.01573.24576-4.83202,1.30507-6.28125,1.78125-3.36185,1.10462-5.79529,2.37141-14.5625,7.59375-1.86164,1.10892-4.43914,2.66579-4.625,2.65625-.53652-.02754-.71281-1.6137-.4375-4 .21552-1.86811.43698-2.32569 1.28125-3.03125 1.46446-1.22385 2.79434-1.74396 6.34375-2.46875 .62703-.12806 1.18065-.2692 1.78125-.40625 4.3918-1.00224 7.99298-2.18153 8.5-2.875 .11092-.15171.10625-.37711.15625-.5625 .03566-.10719.1148-.2017.125-.3125 .01969-.23616-.04005-.46855-.09375-.71875-.19007-.88546-.77044-1.76918-1.625-2.15625-.27517-.12464.00547-.23392.59375-.21875s1.50347-.08918 2.0625-.25 2.67915-.5153 4.6875-.78125 4.81245-.68876 6.25-.9375c1.0724-.18555 2.27393-.26173 4.4375-.25z"/>
 </g>
</svg>
